<svg width="512" height="512" viewBox="0 0 512 512" fill="none" xmlns="http://www.w3.org/2000/svg">
<rect width="512" height="512" fill="#F5F5F5"/>
<g clip-path="url(#clip0_0_1)">
<path d="M256 319.841C220.654 319.841 192 348.495 192 383.841V511.841H320V383.841C320 348.495 291.346 319.841 256 319.841Z" fill="#1A13E6" fill-opacity="0.5"/>
<path d="M362.667 383.841V511.841H448C483.346 511.841 512 483.187 512 447.841V253.26C512.005 242.177 507.698 231.527 499.989 223.564L318.699 27.574C286.711 -7.03601 232.723 -9.16101 198.113 22.827C196.469 24.347 194.885 25.93 193.366 27.574L12.395 223.5C4.453 231.496 -0.00299849 242.31 1.51383e-06 253.58V447.841C1.51383e-06 483.187 28.654 511.841 64 511.841H149.333V383.841C149.732 325.669 196.699 278.165 253.406 276.797C312.01 275.383 362.22 323.696 362.667 383.841Z" fill="#1A13E6" fill-opacity="0.5"/>
<path d="M256 319.841C220.654 319.841 192 348.495 192 383.841V511.841H320V383.841C320 348.495 291.346 319.841 256 319.841Z" fill="#1A13E6" fill-opacity="0.5"/>
</g>
<defs>
<clipPath id="clip0_0_1">
<rect width="512" height="512" fill="white"/>
</clipPath>
</defs>
</svg>
