<?xml version="1.0"?>
<svg width="960" height="960" xmlns="http://www.w3.org/2000/svg" xmlns:svg="http://www.w3.org/2000/svg">
 <g class="layer">
  <title>Layer 1</title>
  <path d="m372,882l-16,-128q-13,-5 -24.5,-12t-22.5,-15l-119,50l-110,-190l103,-78q-1,-7 -1,-13.5l0,-27q0,-6.5 1,-13.5l-103,-78l110,-190l119,50q11,-8 23,-15t24,-12l16,-128l220,0l16,128q13,5 24.5,12t22.5,15l119,-50l110,190l-103,78q1,7 1,13.5l0,27q0,6.5 -2,13.5l103,78l-110,190l-118,-50q-11,8 -23,15t-24,12l-16,128l-220,0zm70,-80l79,0l14,-106q31,-8 57.5,-23.5t48.5,-37.5l99,41l39,-68l-86,-65q5,-14 7,-29.5t2,-31.5q0,-16 -2,-31.5t-7,-29.5l86,-65l-39,-68l-99,42q-22,-23 -48.5,-38.5t-57.5,-23.5l-13,-106l-79,0l-14,106q-31,8 -57.5,23.5t-48.5,37.5l-99,-41l-39,68l86,64q-5,15 -7,30t-2,32q0,16 2,31t7,30l-86,65l39,68l99,-42q22,23 48.5,38.5t57.5,23.5l13,106zm42,-180q58,0 99,-41t41,-99q0,-58 -41,-99t-99,-41q-59,0 -99.5,41t-40.5,99q0,58 40.5,99t99.5,41zm-2,-140z" id="svg_1"/>
 </g>
</svg>